<?xml version="1.0" encoding="utf-8"?>
<!-- Generator: Adobe Illustrator 19.0.0, SVG Export Plug-In . SVG Version: 6.00 Build 0)  -->
<svg version="1.1" id="Capa_1" xmlns="http://www.w3.org/2000/svg" xmlns:xlink="http://www.w3.org/1999/xlink" x="0px" y="0px"
	 viewBox="-244 45.4 470.6 470.6" style="enable-background:new -244 45.4 470.6 470.6;" xml:space="preserve">
<style type="text/css">
	.st0{fill:#D1BEE5;}
	.st1{fill:#F2EDF9;}
	.st2{fill:#DACCF1;}
	.st3{fill:#DFD2F2;}
	.st4{fill:#5628B4;}
	.st5{fill:#7289DA;}
	.st6{fill:#E9E0F6;}
	.st7{fill:#D7CBED;}
</style>
<path class="st0" d="M-102.2,214.8L22.1,90.5c16.7-16.7,43.7-16.7,60.3,0l110.3,110.3c16.7,16.7,16.7,43.7,0,60.3L68.5,385.5
	c-16.7,16.7-43.7,16.7-60.3,0l-110.3-110.3C-118.9,258.5-118.9,231.5-102.2,214.8z"/>
<g>
	<path class="st1" d="M38.3,99.4H-33c-11.3,0-22.2,4.5-30.2,12.5l-36.7,36.7c-18.8,18.8-20.2,51.1,0,68.6
		c7.6,6.6,17.2,10.4,27.3,10.8L-178.7,334l128,128L55,356.3c0.5,10.1,4.3,19.7,10.8,27.3c17.4,20.1,49.7,18.8,68.6,0l37.1-37.1
		c8-8,12.5-18.9,12.5-30.2V245c0-11.3-4.5-22.2-12.5-30.2l-103-103C60.5,103.8,49.6,99.4,38.3,99.4L38.3,99.4z"/>
	<circle class="st1" cx="152" cy="131.4" r="74.7"/>
</g>
<circle class="st2" cx="152" cy="152.7" r="53.3"/>
<path class="st3" d="M152,248.7c10.8,0,21.5-1.6,31.9-4.5c-0.2-11-4.6-21.5-12.4-29.3l-9.8-9.8c-3.2,0.5-6.4,0.9-9.7,1
	c-41.2-0.1-74.6-33.4-74.7-74.7c0-11.8-9.5-21.3-21.3-21.3c-11.8,0-21.3,9.5-21.3,21.3c0,0,0,0,0,0C34.7,196.1,87.2,248.6,152,248.7
	z"/>
<circle class="st4" cx="152" cy="131.4" r="53.3"/>
<path class="st5" d="M152,174c-23.6,0-42.6-19.1-42.7-42.7c0-5.9,4.8-10.7,10.7-10.7s10.7,4.8,10.7,10.7c0,11.8,9.6,21.3,21.3,21.3
	s21.3-9.6,21.3-21.3c0-6.2-2.7-12.1-7.4-16.1c-4.5-3.9-4.9-10.6-1.1-15.1c3.9-4.5,10.6-4.9,15.1-1.1c0,0,0,0,0,0
	c17.8,15.4,19.7,42.4,4.3,60.2C176.1,168.7,164.3,174,152,174L152,174z"/>
<path class="st1" d="M-80.1,491.4l116-116l-64-64l-116,116c-17.7,17.7-17.7,46.3,0,64l0,0l0,0C-126.4,509.1-97.8,509.1-80.1,491.4
	L-80.1,491.4L-80.1,491.4z"/>
<path class="st3" d="M25.2,364.7c-5.9-5.9-15.4-5.9-21.3,0c0,0,0,0,0,0L-98.4,467c-8.3,8.3-21.8,8.3-30.2,0l-25.2-25.2
	c-7.2,17-3.4,36.6,9.6,49.7l0,0c17.7,17.7,46.3,17.7,64,0l0,0L25.2,386C31.1,380.2,31.1,370.6,25.2,364.7z"/>
<path class="st5" d="M-82.7,366L-82.7,366c5.9-5.9,15.4-5.9,21.3,0l42.7,42.7c5.9,5.9,5.9,15.4,0,21.3l0,0c-5.9,5.9-15.4,5.9-21.3,0
	l-42.7-42.7C-88.6,381.5-88.6,371.9-82.7,366z"/>
<path class="st3" d="M-18.7,174c5.9-5.9,5.9-15.4,0-21.3c-5.9-5.9-15.4-5.9-21.3,0c0,0,0,0,0,0l-62,62c0.8,0.8,1.3,1.7,2.2,2.4
	c7.6,6.6,17.2,10.4,27.3,10.8L-18.7,174z"/>
<path class="st4" d="M-50.7,398L-50.7,398c5.9-5.9,15.4-5.9,21.3,0l10.7,10.7c5.9,5.9,5.9,15.4,0,21.3l0,0c-5.9,5.9-15.4,5.9-21.3,0
	l-10.7-10.7C-56.6,413.5-56.6,403.9-50.7,398z"/>
<path class="st5" d="M-82.7,131.4L-82.7,131.4c5.9-5.9,15.4-5.9,21.3,0l42.7,42.7c5.9,5.9,5.9,15.4,0,21.3l0,0
	c-5.9,5.9-15.4,5.9-21.3,0l-42.7-42.7C-88.6,146.8-88.6,137.2-82.7,131.4z"/>
<g>
	<path class="st0" d="M-67.6,231.8L-67.6,231.8c5.9-5.9,15.4-5.9,21.3,0l12.5,12.5c5.9,5.9,5.9,15.4,0,21.3l0,0
		c-5.9,5.9-15.4,5.9-21.3,0l-12.5-12.5C-73.5,247.2-73.5,237.7-67.6,231.8z"/>
	<path class="st0" d="M-25,274.4L-25,274.4c5.9-5.9,15.4-5.9,21.3,0l12.5,12.5c5.9,5.9,5.9,15.4,0,21.3l0,0
		c-5.9,5.9-15.4,5.9-21.3,0L-25,295.8C-30.8,289.9-30.8,280.3-25,274.4z"/>
	<path class="st0" d="M17.7,317.1L17.7,317.1c5.9-5.9,15.4-5.9,21.3,0l12.5,12.5c5.9,5.9,5.9,15.4,0,21.3l0,0
		c-5.9,5.9-15.4,5.9-21.3,0l-12.5-12.5C11.8,332.6,11.8,323,17.7,317.1z"/>
</g>
<path class="st4" d="M-46.3,167.8L-46.3,167.8c5.9-5.9,15.4-5.9,21.3,0l6.3,6.3c5.9,5.9,5.9,15.4,0,21.3l0,0
	c-5.9,5.9-15.4,5.9-21.3,0l-6.3-6.3C-52.2,183.2-52.2,173.7-46.3,167.8z"/>
<path class="st6" d="M58.6,190.9l33.8,33.8c8.3,8.3,8.3,21.8,0,30.2l-30.2,30.2c-8.3,8.3-21.8,8.3-30.2,0l-33.8-33.8
	c-8.3-8.3-8.3-21.8,0-30.2l30.2-30.2C36.7,182.6,50.2,182.6,58.6,190.9z"/>
<circle class="st7" cx="152" cy="110" r="21.3"/>
<path class="st3" d="M65.8,383.6c0.7,0.8,1.6,1.4,2.4,2.2l62.4-62.4c5.9-5.9,5.9-15.4,0-21.3s-15.4-5.9-21.3,0L55,356.3
	C55.5,366.4,59.3,376,65.8,383.6L65.8,383.6z"/>
<path class="st5" d="M88,302L88,302c5.9-5.9,15.4-5.9,21.3,0l42.7,42.7c5.9,5.9,5.9,15.4,0,21.3l0,0c-5.9,5.9-15.4,5.9-21.3,0
	L88,323.3C82.1,317.5,82.1,307.9,88,302z"/>
<path class="st4" d="M124.4,338.4L124.4,338.4c5.9-5.9,15.4-5.9,21.3,0l6.3,6.3c5.9,5.9,5.9,15.4,0,21.3l0,0
	c-5.9,5.9-15.4,5.9-21.3,0l-6.3-6.3C118.5,353.9,118.5,344.3,124.4,338.4z"/>
<path class="st3" d="M-3.6,231.8L-3.6,231.8c5.9-5.9,15.4-5.9,21.3,0l33.8,33.8c5.9,5.9,5.9,15.4,0,21.3l0,0
	c-5.9,5.9-15.4,5.9-21.3,0l-33.8-33.8C-9.5,247.2-9.5,237.7-3.6,231.8z"/>
<path class="st1" d="M-145.4,428.7l116-116l-64-64l-116,116c-17.7,17.7-17.7,46.3,0,64l0,0l0,0
	C-191.7,446.4-163.1,446.4-145.4,428.7L-145.4,428.7L-145.4,428.7z"/>
<path class="st3" d="M-40.1,302.7c-5.9-5.9-15.4-5.9-21.3,0c0,0,0,0,0,0l-102.2,102.2c-8.3,8.3-21.8,8.3-30.2,0l-25.2-25.2
	c-7.2,17-3.4,36.6,9.6,49.7l0,0c17.7,17.7,46.3,17.7,64,0l0,0L-40.1,324C-34.2,318.1-34.2,308.6-40.1,302.7z"/>
<path class="st5" d="M-146.7,302L-146.7,302c5.9-5.9,15.4-5.9,21.3,0l42.7,42.7c5.9,5.9,5.9,15.4,0,21.3l0,0
	c-5.9,5.9-15.4,5.9-21.3,0l-42.7-42.7C-152.6,317.5-152.6,307.9-146.7,302z"/>
<path class="st4" d="M-110.3,338.4L-110.3,338.4c5.9-5.9,15.4-5.9,21.3,0l6.3,6.3c5.9,5.9,5.9,15.4,0,21.3l0,0
	c-5.9,5.9-15.4,5.9-21.3,0l-6.3-6.3C-116.2,353.9-116.2,344.3-110.3,338.4z"/>
</svg>
